<?xml version="1.0" encoding="UTF-8"?>
<svg xmlns="http://www.w3.org/2000/svg" viewBox="0 0 1920 1080">
  <defs>
    <style>
      @import url('https://fonts.googleapis.com/css2?family=Inter:wght@400;500;600;700&amp;family=JetBrains+Mono:wght@400;500&amp;display=swap');
      .title { font-family: 'Inter', sans-serif; font-weight: 700; font-size: 42px; fill: #f8fafc; }
      .subtitle { font-family: 'Inter', sans-serif; font-weight: 500; font-size: 24px; fill: #94a3b8; }
      .section-title { font-family: 'Inter', sans-serif; font-weight: 600; font-size: 22px; fill: #f8fafc; }
      .label { font-family: 'Inter', sans-serif; font-weight: 500; font-size: 18px; fill: #e2e8f0; }
      .label-small { font-family: 'Inter', sans-serif; font-weight: 500; font-size: 14px; fill: #94a3b8; }
      .code { font-family: 'JetBrains Mono', monospace; font-size: 14px; fill: #e2e8f0; }
      .code-small { font-family: 'JetBrains Mono', monospace; font-size: 12px; fill: #cbd5e1; }
      .code-highlight { font-family: 'JetBrains Mono', monospace; font-size: 14px; fill: #22c55e; }
      .number { font-family: 'Inter', sans-serif; font-weight: 700; font-size: 28px; fill: #7c3aed; }
      .stat { font-family: 'JetBrains Mono', monospace; font-weight: 500; font-size: 16px; fill: #22c55e; }
      .stat-label { font-family: 'Inter', sans-serif; font-weight: 400; font-size: 14px; fill: #94a3b8; }
    </style>
    <!-- Gradients -->
    <linearGradient id="headerGrad" x1="0%" y1="0%" x2="0%" y2="100%">
      <stop offset="0%" style="stop-color:#020617"/>
      <stop offset="100%" style="stop-color:#0f172a"/>
    </linearGradient>
    <linearGradient id="corpusGrad" x1="0%" y1="0%" x2="100%" y2="100%">
      <stop offset="0%" style="stop-color:#1e3a8a"/>
      <stop offset="100%" style="stop-color:#1e40af"/>
    </linearGradient>
    <linearGradient id="loraGrad" x1="0%" y1="0%" x2="100%" y2="100%">
      <stop offset="0%" style="stop-color:#22c55e"/>
      <stop offset="100%" style="stop-color:#16a34a"/>
    </linearGradient>
    <linearGradient id="trainGrad" x1="0%" y1="0%" x2="100%" y2="100%">
      <stop offset="0%" style="stop-color:#7c3aed"/>
      <stop offset="100%" style="stop-color:#6d28d9"/>
    </linearGradient>
    <linearGradient id="evalGrad" x1="0%" y1="0%" x2="100%" y2="100%">
      <stop offset="0%" style="stop-color:#f59e0b"/>
      <stop offset="100%" style="stop-color:#d97706"/>
    </linearGradient>
    <!-- Arrow marker -->
    <marker id="arrowhead" markerWidth="10" markerHeight="7" refX="9" refY="3.5" orient="auto">
      <polygon points="0 0, 10 3.5, 0 7" fill="#64748b"/>
    </marker>
    <marker id="arrowhead-green" markerWidth="10" markerHeight="7" refX="9" refY="3.5" orient="auto">
      <polygon points="0 0, 10 3.5, 0 7" fill="#22c55e"/>
    </marker>
  </defs>

  <!-- Background -->
  <rect width="1920" height="1080" fill="#0f172a"/>

  <!-- Header -->
  <rect width="1920" height="100" fill="url(#headerGrad)"/>
  <text x="960" y="55" text-anchor="middle" class="title">Fine-Tuning Pipeline</text>
  <text x="960" y="85" text-anchor="middle" class="subtitle">LoRA: Train 0.1% of parameters, get 100% of the results</text>

  <!-- Footer -->
  <rect y="1030" width="1920" height="50" fill="#020617"/>
  <text x="60" y="1060" class="label-small">Course 4: Advanced Fine-Tuning</text>
  <text x="1860" y="1060" text-anchor="end" class="label-small">Sovereign AI Stack</text>

  <!-- ============================================ -->
  <!-- STEP 1: CORPUS -->
  <!-- ============================================ -->
  <g transform="translate(60, 130)">
    <!-- Step number -->
    <circle cx="25" cy="25" r="25" fill="#7c3aed"/>
    <text x="25" y="33" text-anchor="middle" class="number" style="fill:#fff;font-size:20px">1</text>

    <!-- Section title -->
    <text x="65" y="32" class="section-title">CORPUS</text>
    <text x="180" y="32" class="label-small">100 entries from 7 repos</text>

    <!-- Corpus box -->
    <rect x="0" y="50" width="420" height="200" rx="12" fill="url(#corpusGrad)" opacity="0.3" stroke="#3b82f6" stroke-width="2"/>

    <!-- INPUT section -->
    <text x="20" y="80" class="label" style="fill:#3b82f6">INPUT (Function Signature)</text>
    <rect x="20" y="90" width="380" height="45" rx="6" fill="#1e293b"/>
    <text x="30" y="115" class="code">fn parse_args(&amp;[String])</text>
    <text x="30" y="130" class="code">  -&gt; Result&lt;Config, Error&gt;</text>

    <!-- OUTPUT section -->
    <text x="20" y="160" class="label" style="fill:#22c55e">OUTPUT (Documentation)</text>
    <rect x="20" y="170" width="380" height="70" rx="6" fill="#1e293b"/>
    <text x="30" y="192" class="code-small">/// Parses command-line arguments...</text>
    <text x="30" y="208" class="code-small">/// # Arguments</text>
    <text x="30" y="224" class="code-small">/// * `args` - Raw arguments from env</text>

    <!-- Stats -->
    <g transform="translate(0, 265)">
      <rect width="130" height="50" rx="8" fill="#1e293b" stroke="#334155"/>
      <text x="65" y="22" text-anchor="middle" class="stat">100</text>
      <text x="65" y="40" text-anchor="middle" class="stat-label">entries</text>
    </g>
    <g transform="translate(145, 265)">
      <rect width="130" height="50" rx="8" fill="#1e293b" stroke="#334155"/>
      <text x="65" y="22" text-anchor="middle" class="stat">7</text>
      <text x="65" y="40" text-anchor="middle" class="stat-label">repos</text>
    </g>
    <g transform="translate(290, 265)">
      <rect width="130" height="50" rx="8" fill="#1e293b" stroke="#334155"/>
      <text x="65" y="22" text-anchor="middle" class="stat">0.90</text>
      <text x="65" y="40" text-anchor="middle" class="stat-label">quality</text>
    </g>
  </g>

  <!-- Arrow 1->2 -->
  <path d="M 500 280 L 540 280" stroke="#64748b" stroke-width="3" marker-end="url(#arrowhead)"/>

  <!-- ============================================ -->
  <!-- STEP 2: LORA CONFIG -->
  <!-- ============================================ -->
  <g transform="translate(560, 130)">
    <!-- Step number -->
    <circle cx="25" cy="25" r="25" fill="#7c3aed"/>
    <text x="25" y="33" text-anchor="middle" class="number" style="fill:#fff;font-size:20px">2</text>

    <!-- Section title -->
    <text x="65" y="32" class="section-title">LoRA CONFIG</text>

    <!-- Config box -->
    <rect x="0" y="50" width="380" height="200" rx="12" fill="url(#loraGrad)" opacity="0.2" stroke="#22c55e" stroke-width="2"/>

    <!-- YAML content -->
    <text x="20" y="80" class="code-highlight">lora:</text>
    <text x="20" y="98" class="code">  rank: 8</text>
    <text x="20" y="116" class="code">  alpha: 16</text>
    <text x="20" y="134" class="code">  target_modules:</text>
    <text x="20" y="152" class="code">    - q_proj, k_proj</text>
    <text x="20" y="170" class="code">    - v_proj, o_proj</text>

    <!-- Key insight box -->
    <rect x="200" y="185" width="165" height="55" rx="8" fill="#1e293b" stroke="#22c55e" stroke-width="1"/>
    <text x="282" y="208" text-anchor="middle" class="label-small" style="fill:#22c55e">KEY INSIGHT</text>
    <text x="282" y="230" text-anchor="middle" class="stat">0.1% params</text>

    <!-- Stats -->
    <g transform="translate(0, 265)">
      <rect width="120" height="50" rx="8" fill="#1e293b" stroke="#334155"/>
      <text x="60" y="22" text-anchor="middle" class="stat">r=8</text>
      <text x="60" y="40" text-anchor="middle" class="stat-label">rank</text>
    </g>
    <g transform="translate(130, 265)">
      <rect width="120" height="50" rx="8" fill="#1e293b" stroke="#334155"/>
      <text x="60" y="22" text-anchor="middle" class="stat">α=16</text>
      <text x="60" y="40" text-anchor="middle" class="stat-label">alpha</text>
    </g>
    <g transform="translate(260, 265)">
      <rect width="120" height="50" rx="8" fill="#1e293b" stroke="#334155"/>
      <text x="60" y="22" text-anchor="middle" class="stat">4</text>
      <text x="60" y="40" text-anchor="middle" class="stat-label">layers</text>
    </g>
  </g>

  <!-- Arrow 2->3 -->
  <path d="M 960 280 L 1000 280" stroke="#64748b" stroke-width="3" marker-end="url(#arrowhead)"/>

  <!-- ============================================ -->
  <!-- STEP 3: TRAINING -->
  <!-- ============================================ -->
  <g transform="translate(1020, 130)">
    <!-- Step number -->
    <circle cx="25" cy="25" r="25" fill="#7c3aed"/>
    <text x="25" y="33" text-anchor="middle" class="number" style="fill:#fff;font-size:20px">3</text>

    <!-- Section title -->
    <text x="65" y="32" class="section-title">TRAINING</text>
    <text x="185" y="32" class="label-small">entrenar</text>

    <!-- Training box -->
    <rect x="0" y="50" width="380" height="200" rx="12" fill="url(#trainGrad)" opacity="0.2" stroke="#7c3aed" stroke-width="2"/>

    <!-- Terminal content -->
    <rect x="15" y="65" width="350" height="175" rx="6" fill="#0f172a"/>
    <text x="25" y="85" class="code-small" style="fill:#94a3b8">$ entrenar train train.yaml</text>
    <text x="25" y="103" class="code-small" style="fill:#22c55e">✓ Config loaded</text>
    <text x="25" y="121" class="code-small" style="fill:#22c55e">✓ 2 batches created</text>
    <text x="25" y="143" class="code-small">Epoch 1/3: loss=1.000</text>
    <text x="25" y="161" class="code-small">Epoch 2/3: loss=1.000</text>
    <text x="25" y="179" class="code-small">Epoch 3/3: loss=1.000</text>
    <text x="25" y="200" class="code-small" style="fill:#22c55e">✓ Model saved</text>

    <!-- Stats -->
    <g transform="translate(0, 265)">
      <rect width="120" height="50" rx="8" fill="#1e293b" stroke="#334155"/>
      <text x="60" y="22" text-anchor="middle" class="stat">3</text>
      <text x="60" y="40" text-anchor="middle" class="stat-label">epochs</text>
    </g>
    <g transform="translate(130, 265)">
      <rect width="120" height="50" rx="8" fill="#1e293b" stroke="#334155"/>
      <text x="60" y="22" text-anchor="middle" class="stat">0.0002</text>
      <text x="60" y="40" text-anchor="middle" class="stat-label">learning rate</text>
    </g>
    <g transform="translate(260, 265)">
      <rect width="120" height="50" rx="8" fill="#1e293b" stroke="#334155"/>
      <text x="60" y="22" text-anchor="middle" class="stat">4</text>
      <text x="60" y="40" text-anchor="middle" class="stat-label">batch size</text>
    </g>
  </g>

  <!-- Arrow 3->4 -->
  <path d="M 1420 280 L 1460 280" stroke="#64748b" stroke-width="3" marker-end="url(#arrowhead)"/>

  <!-- ============================================ -->
  <!-- STEP 4: EVALUATION -->
  <!-- ============================================ -->
  <g transform="translate(1480, 130)">
    <!-- Step number -->
    <circle cx="25" cy="25" r="25" fill="#7c3aed"/>
    <text x="25" y="33" text-anchor="middle" class="number" style="fill:#fff;font-size:20px">4</text>

    <!-- Section title -->
    <text x="65" y="32" class="section-title">EVALUATION</text>

    <!-- Eval box -->
    <rect x="0" y="50" width="380" height="200" rx="12" fill="url(#evalGrad)" opacity="0.2" stroke="#f59e0b" stroke-width="2"/>

    <!-- Metrics -->
    <text x="20" y="78" class="label" style="fill:#f59e0b">Metrics</text>

    <!-- Structural bar -->
    <text x="20" y="100" class="code-small">Structural</text>
    <rect x="95" y="88" width="180" height="16" rx="4" fill="#1e293b"/>
    <rect x="95" y="88" width="180" height="16" rx="4" fill="#22c55e"/>
    <text x="285" y="100" class="code-small" style="fill:#22c55e">100%</text>

    <!-- Content bar -->
    <text x="20" y="125" class="code-small">Content</text>
    <rect x="95" y="113" width="180" height="16" rx="4" fill="#1e293b"/>
    <rect x="95" y="113" width="144" height="16" rx="4" fill="#22c55e"/>
    <text x="285" y="125" class="code-small" style="fill:#22c55e">80%</text>

    <!-- BLEU bar -->
    <text x="20" y="150" class="code-small">BLEU</text>
    <rect x="95" y="138" width="180" height="16" rx="4" fill="#1e293b"/>
    <rect x="95" y="138" width="180" height="16" rx="4" fill="#22c55e"/>
    <text x="285" y="150" class="code-small" style="fill:#22c55e">100%</text>

    <!-- Pass indicator -->
    <rect x="80" y="165" width="220" height="70" rx="8" fill="#166534" stroke="#22c55e" stroke-width="2"/>
    <text x="190" y="207" text-anchor="middle" class="section-title" style="fill:#22c55e">✓ PASS</text>

    <!-- Stats -->
    <g transform="translate(0, 265)">
      <rect width="185" height="50" rx="8" fill="#1e293b" stroke="#334155"/>
      <text x="92" y="22" text-anchor="middle" class="stat">96/100</text>
      <text x="92" y="40" text-anchor="middle" class="stat-label">validation score</text>
    </g>
    <g transform="translate(195, 265)">
      <rect width="185" height="50" rx="8" fill="#1e293b" stroke="#334155"/>
      <text x="92" y="22" text-anchor="middle" class="stat">73</text>
      <text x="92" y="40" text-anchor="middle" class="stat-label">tests passed</text>
    </g>
  </g>

  <!-- ============================================ -->
  <!-- LoRA MATH SECTION -->
  <!-- ============================================ -->
  <g transform="translate(60, 480)">
    <text x="0" y="0" class="section-title" style="fill:#7c3aed">LoRA Math</text>
    <text x="120" y="0" class="label-small">W' = W + A × B</text>

    <!-- Math visualization -->
    <rect x="0" y="20" width="900" height="180" rx="12" fill="#1e293b" stroke="#334155"/>

    <!-- Original W -->
    <text x="30" y="55" class="label" style="fill:#1e3a8a">W (Frozen)</text>
    <rect x="30" y="65" width="120" height="120" rx="6" fill="#1e3a8a" opacity="0.3" stroke="#3b82f6"/>
    <text x="90" y="130" text-anchor="middle" class="code">[d × d]</text>
    <text x="90" y="150" text-anchor="middle" class="code-small">16.8M params</text>

    <!-- Plus sign -->
    <text x="175" y="130" class="title" style="fill:#64748b">+</text>

    <!-- A matrix -->
    <text x="230" y="55" text-anchor="middle" class="label-small" style="fill:#22c55e">A</text>
    <rect x="210" y="65" width="40" height="120" rx="6" fill="#22c55e" opacity="0.3" stroke="#22c55e"/>
    <text x="230" y="130" text-anchor="middle" class="code">[d×r]</text>

    <!-- Times sign -->
    <text x="270" y="130" class="title" style="fill:#64748b">×</text>

    <!-- B matrix -->
    <text x="365" y="95" text-anchor="middle" class="label-small" style="fill:#22c55e">B</text>
    <rect x="305" y="100" width="120" height="40" rx="6" fill="#22c55e" opacity="0.3" stroke="#22c55e"/>
    <text x="365" y="125" text-anchor="middle" class="code">[r×d]</text>

    <!-- Equals sign -->
    <text x="440" y="130" class="title" style="fill:#64748b">=</text>

    <!-- Delta W -->
    <text x="480" y="55" class="label" style="fill:#eab308">ΔW (Update)</text>
    <rect x="480" y="65" width="120" height="120" rx="6" fill="#eab308" opacity="0.2" stroke="#eab308"/>
    <text x="540" y="130" text-anchor="middle" class="code">[d × d]</text>
    <text x="540" y="150" text-anchor="middle" class="code-small">65K params</text>

    <!-- Arrow to final -->
    <path d="M 620 125 L 660 125" stroke="#22c55e" stroke-width="3" marker-end="url(#arrowhead-green)"/>

    <!-- Final W' -->
    <text x="680" y="55" class="label" style="fill:#22c55e">W' (Inference)</text>
    <rect x="680" y="65" width="120" height="120" rx="6" fill="#22c55e" opacity="0.2" stroke="#22c55e" stroke-width="2"/>
    <text x="740" y="125" text-anchor="middle" class="code">W + AB</text>
    <text x="740" y="150" text-anchor="middle" class="code-small">merged</text>

    <!-- Savings callout -->
    <rect x="820" y="80" width="70" height="90" rx="8" fill="#166534" stroke="#22c55e"/>
    <text x="855" y="115" text-anchor="middle" class="stat" style="font-size:24px">256×</text>
    <text x="855" y="140" text-anchor="middle" class="stat-label">smaller</text>
    <text x="855" y="158" text-anchor="middle" class="stat-label">r=8</text>
  </g>

  <!-- ============================================ -->
  <!-- PRODUCTION WORKFLOW -->
  <!-- ============================================ -->
  <g transform="translate(1000, 480)">
    <text x="0" y="0" class="section-title" style="fill:#f59e0b">Production Workflow</text>

    <rect x="0" y="20" width="860" height="180" rx="12" fill="#1e293b" stroke="#334155"/>

    <!-- Command 1 -->
    <text x="20" y="55" class="code-small" style="fill:#94a3b8"># 1. Import from HuggingFace</text>
    <text x="20" y="75" class="code">apr import hf://Qwen/Qwen2.5-Coder-1.5B -o base.apr</text>

    <!-- Command 2 -->
    <text x="20" y="100" class="code-small" style="fill:#94a3b8"># 2. Fine-tune with LoRA</text>
    <text x="20" y="120" class="code">entrenar train train.yaml -o adapter.apr</text>

    <!-- Command 3 -->
    <text x="20" y="145" class="code-small" style="fill:#94a3b8"># 3. Merge and run</text>
    <text x="20" y="165" class="code">apr merge base.apr adapter.apr -o merged.apr</text>
    <text x="20" y="185" class="code">apr run merged.apr --prompt "fn sort_by_key..."</text>

    <!-- Output callout -->
    <rect x="550" y="40" width="290" height="140" rx="8" fill="#0f172a" stroke="#22c55e"/>
    <text x="570" y="65" class="code-small" style="fill:#22c55e">Output:</text>
    <text x="570" y="90" class="code-small">/// Sorts items in-place by</text>
    <text x="570" y="108" class="code-small">/// a key function.</text>
    <text x="570" y="126" class="code-small">///</text>
    <text x="570" y="144" class="code-small">/// # Arguments</text>
    <text x="570" y="162" class="code-small">/// * `items` - Mutable slice</text>
  </g>

  <!-- ============================================ -->
  <!-- REPO DISTRIBUTION (bottom left) -->
  <!-- ============================================ -->
  <g transform="translate(60, 720)">
    <text x="0" y="0" class="section-title">Repository Distribution</text>

    <rect x="0" y="20" width="440" height="280" rx="12" fill="#1e293b" stroke="#334155"/>

    <!-- Bars -->
    <g transform="translate(20, 45)">
      <!-- ripgrep -->
      <text x="0" y="12" class="code-small">ripgrep</text>
      <rect x="100" y="0" width="280" height="20" rx="4" fill="#0f172a"/>
      <rect x="100" y="0" width="266" height="20" rx="4" fill="#3b82f6"/>
      <text x="375" y="14" class="code-small">38%</text>

      <!-- clap -->
      <text x="0" y="47" class="code-small">clap</text>
      <rect x="100" y="35" width="280" height="20" rx="4" fill="#0f172a"/>
      <rect x="100" y="35" width="182" height="20" rx="4" fill="#3b82f6"/>
      <text x="375" y="49" class="code-small">26%</text>

      <!-- eza -->
      <text x="0" y="82" class="code-small">eza</text>
      <rect x="100" y="70" width="280" height="20" rx="4" fill="#0f172a"/>
      <rect x="100" y="70" width="119" height="20" rx="4" fill="#3b82f6"/>
      <text x="375" y="84" class="code-small">17%</text>

      <!-- starship -->
      <text x="0" y="117" class="code-small">starship</text>
      <rect x="100" y="105" width="280" height="20" rx="4" fill="#0f172a"/>
      <rect x="100" y="105" width="49" height="20" rx="4" fill="#3b82f6"/>
      <text x="375" y="119" class="code-small">7%</text>

      <!-- fd -->
      <text x="0" y="152" class="code-small">fd</text>
      <rect x="100" y="140" width="280" height="20" rx="4" fill="#0f172a"/>
      <rect x="100" y="140" width="35" height="20" rx="4" fill="#3b82f6"/>
      <text x="375" y="154" class="code-small">5%</text>

      <!-- tokei -->
      <text x="0" y="187" class="code-small">tokei</text>
      <rect x="100" y="175" width="280" height="20" rx="4" fill="#0f172a"/>
      <rect x="100" y="175" width="28" height="20" rx="4" fill="#3b82f6"/>
      <text x="375" y="189" class="code-small">4%</text>

      <!-- bat -->
      <text x="0" y="222" class="code-small">bat</text>
      <rect x="100" y="210" width="280" height="20" rx="4" fill="#0f172a"/>
      <rect x="100" y="210" width="21" height="20" rx="4" fill="#3b82f6"/>
      <text x="375" y="224" class="code-small">3%</text>
    </g>
  </g>

  <!-- ============================================ -->
  <!-- CATEGORY DISTRIBUTION (bottom center) -->
  <!-- ============================================ -->
  <g transform="translate(540, 720)">
    <text x="0" y="0" class="section-title">Category Distribution</text>

    <rect x="0" y="20" width="440" height="280" rx="12" fill="#1e293b" stroke="#334155"/>

    <!-- Category bars with labels outside -->
    <g transform="translate(20, 50)">
      <!-- function -->
      <rect x="0" y="0" width="400" height="35" rx="6" fill="#0f172a"/>
      <rect x="0" y="0" width="184" height="35" rx="6" fill="#7c3aed"/>
      <text x="200" y="23" class="label-small">function 46%</text>

      <!-- argument -->
      <rect x="0" y="45" width="400" height="35" rx="6" fill="#0f172a"/>
      <rect x="0" y="45" width="116" height="35" rx="6" fill="#14b8a6"/>
      <text x="130" y="68" class="label-small">argument 29%</text>

      <!-- example -->
      <rect x="0" y="90" width="400" height="35" rx="6" fill="#0f172a"/>
      <rect x="0" y="90" width="56" height="35" rx="6" fill="#f59e0b"/>
      <text x="70" y="113" class="label-small">example 14%</text>

      <!-- module -->
      <rect x="0" y="135" width="400" height="35" rx="6" fill="#0f172a"/>
      <rect x="0" y="135" width="24" height="35" rx="6" fill="#22c55e"/>
      <text x="40" y="158" class="label-small">module 6%</text>

      <!-- error -->
      <rect x="0" y="180" width="400" height="35" rx="6" fill="#0f172a"/>
      <rect x="0" y="180" width="20" height="35" rx="6" fill="#ef4444"/>
      <text x="35" y="203" class="label-small">error 5%</text>
    </g>
  </g>

  <!-- ============================================ -->
  <!-- VALIDATION RESULTS (bottom right) -->
  <!-- ============================================ -->
  <g transform="translate(1020, 720)">
    <text x="0" y="0" class="section-title">Falsification Tests</text>
    <text x="180" y="0" class="label-small">96/100</text>

    <rect x="0" y="20" width="840" height="280" rx="12" fill="#1e293b" stroke="#334155"/>

    <!-- Validation sections -->
    <g transform="translate(20, 45)">
      <!-- Data Integrity -->
      <rect x="0" y="0" width="255" height="65" rx="8" fill="#0f172a" stroke="#22c55e"/>
      <text x="127" y="28" text-anchor="middle" class="label-small" style="fill:#22c55e">Data Integrity</text>
      <text x="127" y="50" text-anchor="middle" class="stat">20/20</text>

      <!-- Syntactic -->
      <rect x="270" y="0" width="255" height="65" rx="8" fill="#0f172a" stroke="#22c55e"/>
      <text x="397" y="28" text-anchor="middle" class="label-small" style="fill:#22c55e">Syntactic</text>
      <text x="397" y="50" text-anchor="middle" class="stat">20/20</text>

      <!-- Semantic -->
      <rect x="540" y="0" width="255" height="65" rx="8" fill="#0f172a" stroke="#22c55e"/>
      <text x="667" y="28" text-anchor="middle" class="label-small" style="fill:#22c55e">Semantic</text>
      <text x="667" y="50" text-anchor="middle" class="stat">20/20</text>

      <!-- Distribution -->
      <rect x="0" y="80" width="255" height="65" rx="8" fill="#0f172a" stroke="#eab308"/>
      <text x="127" y="108" text-anchor="middle" class="label-small" style="fill:#eab308">Distribution</text>
      <text x="127" y="130" text-anchor="middle" class="stat" style="fill:#eab308">11/15</text>

      <!-- Reproducibility -->
      <rect x="270" y="80" width="255" height="65" rx="8" fill="#0f172a" stroke="#22c55e"/>
      <text x="397" y="108" text-anchor="middle" class="label-small" style="fill:#22c55e">Reproducibility</text>
      <text x="397" y="130" text-anchor="middle" class="stat">15/15</text>

      <!-- Quality -->
      <rect x="540" y="80" width="255" height="65" rx="8" fill="#0f172a" stroke="#22c55e"/>
      <text x="667" y="108" text-anchor="middle" class="label-small" style="fill:#22c55e">Quality</text>
      <text x="667" y="130" text-anchor="middle" class="stat">10/10</text>
    </g>

    <!-- Test counts -->
    <g transform="translate(20, 210)">
      <rect x="0" y="0" width="190" height="55" rx="8" fill="#166534" stroke="#22c55e"/>
      <text x="95" y="22" text-anchor="middle" class="label-small" style="fill:#fff">Validation</text>
      <text x="95" y="42" text-anchor="middle" class="stat">54</text>

      <rect x="205" y="0" width="190" height="55" rx="8" fill="#166534" stroke="#22c55e"/>
      <text x="300" y="22" text-anchor="middle" class="label-small" style="fill:#fff">Property</text>
      <text x="300" y="42" text-anchor="middle" class="stat">18</text>

      <rect x="410" y="0" width="190" height="55" rx="8" fill="#166534" stroke="#22c55e"/>
      <text x="505" y="22" text-anchor="middle" class="label-small" style="fill:#fff">Doc</text>
      <text x="505" y="42" text-anchor="middle" class="stat">1</text>

      <rect x="615" y="0" width="180" height="55" rx="8" fill="#166534" stroke="#22c55e" stroke-width="2"/>
      <text x="705" y="22" text-anchor="middle" class="label-small" style="fill:#fff">TOTAL</text>
      <text x="705" y="44" text-anchor="middle" class="stat" style="font-size:18px">73 ✓</text>
    </g>
  </g>
</svg>
